# xmcd
#
# Track frame offsets:
#	150
#	11044
#	22029
#	31370
#	46500
#	56454
#	66317
#	76508
#	89806
#	104824
#	118463
#	128998
#	144344
#	161954
#	180427
#	193801
#	209035
#	217784
#	234265
#	247124
#	259286
#	277348
#	288723
#	306489
#
# Disc length: 4481 seconds
#
# Revision: 0
# Processed by: cddbd v1.5.2PL0 Copyright (c) Steve Scherf et al.
# Submitted via: dBpowerAMP V4.0
#
DISCID=7b117f18
DTITLE=Barbara Dane - On my way
DYEAR=1900
DGENRE=Blues
TTITLE0=Take it slow and easy
TTITLE1=I'm on my way
TTITLE2=Draggin' my heart around
TTITLE3=Crazy blues
TTITLE4=Goodby daddy goodby
TTITLE5=Cake walking babies from home
TTITLE6=Wild women don't get the blues
TTITLE7=This little of mine
TTITLE8=Hurry up sundownlet tommorow come
TTITLE9=The hammer song
TTITLE10=Mama don't allow no twistin
TTITLE11=I'm on my way
TTITLE12=The glory of love
TTITLE13=Good morning blues
TTITLE14=Trouble in mind
TTITLE15=Ain't nobody got the blues like me
TTITLE16=How long blues
TTITLE17=When I was a young girl
TTITLE18=In the evenin
TTITLE19=Since I fell for you
TTITLE20=Girl of constant sorrow
TTITLE21=I know where I'm going
TTITLE22=Don't sing love songs
TTITLE23=Old fashioned love
EXTD=
EXTT0=
EXTT1=
EXTT2=
EXTT3=
EXTT4=
EXTT5=
EXTT6=
EXTT7=
EXTT8=
EXTT9=
EXTT10=
EXTT11=
EXTT12=
EXTT13=
EXTT14=
EXTT15=
EXTT16=
EXTT17=
EXTT18=
EXTT19=
EXTT20=
EXTT21=
EXTT22=
EXTT23=
PLAYORDER=
